<svg width="18" height="18" viewBox="0 0 26 25" fill="none" xmlns="http://www.w3.org/2000/svg">
<path fill-rule="evenodd" clip-rule="evenodd" d="M22.375 8.125C23.5574 8.125 24.644 7.71455 25.5 7.02836V21C25.5 23.2091 23.7091 25 21.5 25H4.5C2.29086 25 0.5 23.2091 0.5 21V4C0.5 1.79086 2.29086 0 4.5 0H18.4716C17.7854 0.855999 17.375 1.94257 17.375 3.125C17.375 5.88642 19.6136 8.125 22.375 8.125ZM8.9375 8.75C8.9375 7.88706 9.63706 7.1875 10.5 7.1875C11.3629 7.1875 12.0625 7.88706 12.0625 8.75V16.25C12.0625 18.1485 13.6015 19.6875 15.5 19.6875C17.3985 19.6875 18.9375 18.1485 18.9375 16.25V15C18.9375 14.1371 19.6371 13.4375 20.5 13.4375H21.75C22.2678 13.4375 22.6875 13.0178 22.6875 12.5C22.6875 11.9822 22.2678 11.5625 21.75 11.5625H20.5C18.6015 11.5625 17.0625 13.1015 17.0625 15V16.25C17.0625 17.1129 16.3629 17.8125 15.5 17.8125C14.6371 17.8125 13.9375 17.1129 13.9375 16.25V8.75C13.9375 6.85152 12.3985 5.3125 10.5 5.3125C8.60152 5.3125 7.0625 6.85152 7.0625 8.75V10C7.0625 10.8629 6.36295 11.5625 5.5 11.5625H4.25C3.73223 11.5625 3.3125 11.9822 3.3125 12.5C3.3125 13.0178 3.73223 13.4375 4.25 13.4375H5.5C7.39848 13.4375 8.9375 11.8985 8.9375 10V8.75ZM22.375 6.25C24.1009 6.25 25.5 4.85089 25.5 3.125C25.5 1.39911 24.1009 0 22.375 0C20.6491 0 19.25 1.39911 19.25 3.125C19.25 4.85089 20.6491 6.25 22.375 6.25Z" fill="#FFD124"/>
</svg>
