<svg width="24" height="24" viewBox="0 0 26 26" fill="none" xmlns="http://www.w3.org/2000/svg">
<path fill-rule="evenodd" clip-rule="evenodd" d="M13 25.5C19.9036 25.5 25.5 19.9036 25.5 13C25.5 6.09644 19.9036 0.5 13 0.5C6.09644 0.5 0.5 6.09644 0.5 13C0.5 19.9036 6.09644 25.5 13 25.5ZM13.9375 6.75C13.9375 6.23223 13.5178 5.8125 13 5.8125C12.4822 5.8125 12.0625 6.23223 12.0625 6.75V13C12.0625 13.4035 12.3207 13.7618 12.7035 13.8894L16.4535 15.1394C16.9447 15.3031 17.4757 15.0377 17.6394 14.5465C17.8031 14.0553 17.5377 13.5243 17.0465 13.3606L13.9375 12.3243V6.75Z" fill="#F9F9F9"/>
</svg>
