<svg width="34" height="34" viewBox="0 0 34 34" fill="none" xmlns="http://www.w3.org/2000/svg">
<path d="M33.5 29.8333V26.8158C33.5 25.3165 32.5872 23.9682 31.1951 23.4114L27.4658 21.9197C25.6953 21.2114 23.6773 21.9786 22.8245 23.6843L22.5 24.3333C22.5 24.3333 17.9167 23.4167 14.25 19.75C10.5833 16.0833 9.66667 11.5 9.66667 11.5L10.3157 11.1755C12.0214 10.3227 12.7886 8.30475 12.0803 6.53415L10.5886 2.8049C10.0318 1.41282 8.68353 0.5 7.18421 0.5H4.16667C2.14162 0.5 0.5 2.14162 0.5 4.16667C0.5 20.367 13.633 33.5 29.8333 33.5C31.8584 33.5 33.5 31.8584 33.5 29.8333Z" fill="#3A3C3F"/>
</svg>
