<svg width="20" height="20" viewBox="0 0 25 25" fill="none" xmlns="http://www.w3.org/2000/svg">
<path fill-rule="evenodd" clip-rule="evenodd" d="M12.5 25C19.4036 25 25 19.4036 25 12.5C25 5.59644 19.4036 0 12.5 0C5.59644 0 0 5.59644 0 12.5C0 19.4036 5.59644 25 12.5 25ZM16.0765 7.5573L8.23855 10.1699C7.25382 10.4982 7.25382 11.8911 8.23855 12.2193L11.1328 13.1841C11.4553 13.2916 11.7084 13.5447 11.8159 13.8672L12.7807 16.7614C13.1089 17.7462 14.5018 17.7462 14.8301 16.7615L17.4427 8.92354C17.7242 8.07915 16.9208 7.27583 16.0765 7.5573Z" fill="#FFD124"/>
</svg>
